<svg xmlns:rdf="http://www.w3.org/1999/02/22-rdf-syntax-ns#" xmlns="http://www.w3.org/2000/svg" height="32" width="32" version="1.1" xmlns:cc="http://creativecommons.org/ns#" xmlns:dc="http://purl.org/dc/elements/1.1/">
	<g transform="translate(0,-1020.3622)">
		<path style="fill-rule:nonzero;fill:#c53929;" d="M7,2c-2.7527,0-5,2.2473-5,5v18c0,2.7527,2.2473,5,5,5h18c2.7527,0,5-2.2473,5-5v-18c0-2.7527-2.247-5-5-5zm0,2,18,0c1.6793,0,3,1.3207,3,3v18c0,1.6793-1.3207,3-3,3h-18c-1.6793,0-3-1.321-3-3v-18c0-1.6793,1.3207-3,3-3zm0,3,0,18,18,0,0-18zm13.75,2.25c1,0,1.5,0.5,1.5,1,0,0.48828-0.36719,0.75-0.75,0.75-0.41016,0-0.75-0.25-0.75-0.75,0-0.25,0.25-0.5,0-0.5s-1,0.25-1.5,1c-0.69338,1.0401-1,2.25-1,2.25h1.5l-0.25,1h-1.5s-1.25,4.5-1.75,5.75c-1,2.5-3,3-4.25,3-1,0-1.25-0.5-1.25-1s0.36328-0.75,0.75-0.75c0.39062,0,0.75,0.25,0.75,0.75,0,0.25-0.25,0.25-0.25,0.5s1.25,0,1.75-1.25,1.1179-3.4053,1.5-4.75c0,0,0.5-2,0.5-2.25h-1.25l0.25-1s0.93268-0.18268,1.25-0.5c0.5-0.5,1-1.25,1.75-2,1.25-1.25,2.5-1.25,3-1.25z" transform="translate(0,1020.3622)"/>
	</g>
</svg>
