<svg id="svg2" xmlns:rdf="http://www.w3.org/1999/02/22-rdf-syntax-ns#" xmlns="http://www.w3.org/2000/svg" height="256" width="256" version="1.1" xmlns:cc="http://creativecommons.org/ns#" xmlns:dc="http://purl.org/dc/elements/1.1/">

 <g id="g4" transform="translate(0,-796.36218)">

  <path id="rect6" style="fill-rule:nonzero;fill:#c53929;" d="M61.5,16c-25.102,0-45.5,20.562-45.5,45.75v132.47c0,25.19,20.397,45.75,45.5,45.75h133c25.1,0,45.5-20.56,45.5-45.75v-132.47c0-25.187-20.4-45.75-45.5-45.75h-133zm0,16h133c16.46,0,29.5,13.091,29.5,29.75v132.47c0,16.66-13.04,29.75-29.5,29.75h-133c-16.455,0-29.5-13.09-29.5-29.75v-132.47c0-16.66,13.044-29.75,29.5-29.75zm15.344,16c-15.984,0-28.844,12.968-28.844,29.062v101.88c0,16.09,12.86,29.06,28.844,29.06h102.32c15.98,0,28.84-12.97,28.84-29.06v-101.88c0-16.094-12.86-29.062-28.84-29.062h-102.32zm82.096,13.938c4.68,0,8.22,1.145,10.56,3.437,2.34,2.293,3.5,5.09,3.5,8.406,0,2.245-0.7,4.086-2.06,5.5-1.37,1.415-3.16,2.125-5.41,2.125-2.15,0-3.87-0.711-5.19-2.125-1.31-1.414-1.97-3.17-1.96-5.219-0.01-1.366,0.37-2.538,1.15-3.562s1.19-1.793,1.19-2.281c0-0.682-0.26-1.189-0.75-1.531-0.49-0.343-1.01-0.5-1.59-0.5-2.93,0-5.5,1.94-7.69,5.843-2.2,3.903-4.13,9.206-5.78,15.938l-2.63,10.406h13.44l-1.31,6.125h-13.16c-1.27,5.76-2.56,11.9-3.87,18.44-1.32,6.53-2.76,13.03-4.32,19.47-1.56,6.43-3.27,12.58-5.12,18.43-1.86,5.86-3.92,11.05-6.16,15.54-2.83,5.55-6.18,9.87-10.03,13-3.85,3.12-8.65,4.68-14.406,4.68-4.487,0-7.994-1.03-10.532-3.12-2.536-2.1-3.812-5.16-3.812-9.16,0-1.07,0.276-2.06,0.812-2.94,0.538-0.87,1.176-1.61,1.907-2.25,0.731-0.63,1.528-1.12,2.406-1.47,0.878-0.34,1.662-0.53,2.344-0.53,1.465,0,3.042,0.64,4.75,1.91,1.707,1.27,2.562,2.98,2.562,5.12,0,1.86-0.405,3.21-1.187,4.04s-1.156,1.6-1.156,2.28c0,0.39,0.202,0.75,0.593,1.09,0.392,0.34,0.97,0.5,1.75,0.5,1.659,0,3.079-0.45,4.249-1.37,1.17-0.93,2.26-2.54,3.28-4.78,1.03-2.25,2.03-5.32,3-9.22,0.98-3.91,2.17-8.86,3.53-14.91,1.17-5.46,2.26-10.46,3.28-15,1.03-4.54,2.02-8.94,2.94-13.19,0.93-4.24,1.87-8.47,2.85-12.72,0.97-4.24,2.04-8.86,3.21-13.84h-10.68l1.31-6.125h10.69c1.75-6.925,3.83-12.709,6.22-17.344,2.39-4.634,5.02-8.358,7.9-11.187,2.88-2.83,5.95-4.875,9.22-6.094s6.64-1.812,10.16-1.812z" transform="translate(0,796.36218)"/>

 </g>

</svg>

