<?xml version="1.0" encoding="UTF-8" standalone="no"?>
<!-- Created with Inkscape (http://www.inkscape.org/) -->
<svg id="svg2" xmlns:rdf="http://www.w3.org/1999/02/22-rdf-syntax-ns#" xmlns="http://www.w3.org/2000/svg" height="256" width="256" version="1.1" xmlns:cc="http://creativecommons.org/ns#" xmlns:dc="http://purl.org/dc/elements/1.1/">
 <metadata id="metadata7">
  <rdf:RDF>
   <cc:Work rdf:about="">
    <dc:format>image/svg+xml</dc:format>
    <dc:type rdf:resource="http://purl.org/dc/dcmitype/StillImage"/>
    <dc:title/>
   </cc:Work>
  </rdf:RDF>
 </metadata>
 <g id="layer1" transform="translate(0,-796.36218)">
  <rect id="rect3815" fill-rule="nonzero" rx="28.851" ry="29.052" height="160" width="160" y="844.36" x="48" fill="#c53929"/>
  <path id="rect3837" d="m61.507,820.36,132.99,0c20.779,0,37.507,16.845,37.507,37.768v132.46c0,20.924-16.728,37.768-37.507,37.768h-132.99c-20.779,0-37.507-16.845-37.507-37.768v-132.46c0-20.924,16.728-37.768,37.507-37.768z" stroke="#c53929" stroke-dasharray="none" stroke-miterlimit="4" stroke-width="16" fill="none"/>
  <g id="text3841" style="letter-spacing:0px;word-spacing:0px;" font-weight="bold" transform="matrix(9.1460069,0,0,9.1460069,1146.8141,-1332.452)" font-stretch="normal" line-height="125%" font-size="16px" font-variant="normal" font-family="Thames" font-style="oblique" fill="#FFF">
   <path id="path3846" fill="#FFF" d="m-106.47,240.83c-0.00001,0.24545-0.0747,0.44549-0.22412,0.6001-0.14943,0.15463-0.34685,0.23194-0.59229,0.23193-0.23471,0.00001-0.424-0.0773-0.56787-0.23193-0.14389-0.15461-0.21583-0.3439-0.21582-0.56787-0.00001-0.14941,0.0426-0.2801,0.12793-0.39209,0.0853-0.11197,0.12792-0.19465,0.12793-0.24805-0.00001-0.0745-0.0267-0.13052-0.0801-0.16797-0.0534-0.0374-0.11198-0.0561-0.17578-0.0562-0.31999,0.00001-0.60002,0.21339-0.84009,0.64014-0.24007,0.42676-0.45077,1.0081-0.63208,1.7441l-0.28808,1.1357h1.4722l-0.14404,0.67187h-1.4399c-0.13868,0.62957-0.28003,1.3017-0.42407,2.0164-0.14405,0.71469-0.30136,1.424-0.47193,2.1279-0.17057,0.70394-0.35726,1.3759-0.56006,2.0159-0.2028,0.63997-0.42676,1.2054-0.67187,1.6963-0.30957,0.60774-0.67497,1.0823-1.0962,1.4236-0.42123,0.34131-0.94662,0.51196-1.5762,0.51197-0.49056-0.00001-0.87451-0.11467-1.1519-0.344-0.27734-0.22933-0.41601-0.56258-0.41602-0.99975,0.00001-0.11752,0.0294-0.22421,0.0881-0.32007,0.0588-0.0959,0.12809-0.17847,0.20801-0.2478,0.0799-0.0693,0.16789-0.12273,0.26391-0.16016,0.096-0.0374,0.18132-0.0562,0.25586-0.0562,0.16016,0,0.33358,0.0693,0.52027,0.208,0.18668,0.13867,0.28003,0.32536,0.28003,0.56006,0,0.2028-0.0427,0.34953-0.12818,0.44019-0.0855,0.0907-0.12817,0.17325-0.12817,0.2478,0,0.0426,0.0214,0.0827,0.0642,0.12012,0.0428,0.0374,0.10685,0.0562,0.19214,0.0562,0.18131,0,0.33593-0.0507,0.46386-0.1521s0.24789-0.27474,0.35987-0.52002,0.22135-0.5813,0.32812-1.008c0.10677-0.42676,0.23486-0.97071,0.38428-1.6318,0.12793-0.59733,0.24788-1.144,0.35986-1.6401,0.11198-0.49609,0.21859-0.97615,0.31983-1.4402,0.10123-0.46403,0.20524-0.92798,0.31201-1.3918,0.10677-0.46386,0.22412-0.96793,0.35205-1.5122h-1.168l0.14404-0.67187h1.168c0.19206-0.75715,0.4187-1.3891,0.67993-1.8958,0.26123-0.50667,0.54924-0.91471,0.86402-1.2241,0.31477-0.3094,0.65079-0.53075,1.008-0.66407,0.35726-0.13329,0.72794-0.19994,1.1121-0.19995,0.51204,0.00001,0.89608,0.12534,1.1521,0.37598,0.25602,0.25066,0.38403,0.5573,0.38404,0.91992z"/>
  </g>
 </g>
</svg>
