<!-- Created with Inkscape (http://www.inkscape.org/) -->
<svg xmlns:rdf="http://www.w3.org/1999/02/22-rdf-syntax-ns#" xmlns="http://www.w3.org/2000/svg" height="256" width="256" version="1.1" xmlns:cc="http://creativecommons.org/ns#" xmlns:dc="http://purl.org/dc/elements/1.1/">
	<metadata>
		<rdf:RDF>
			<cc:Work rdf:about="">
				<dc:format>image/svg+xml</dc:format>
				<dc:type rdf:resource="http://purl.org/dc/dcmitype/StillImage"/>
				<dc:title/>
			</cc:Work>
		</rdf:RDF>
	</metadata>
	<g transform="translate(0,-796.36218)">
		<path style="fill-rule:nonzero;fill:#c53929;" d="M62,20c-23.095,0-42,18.905-42,42v132c0,23.1,18.905,42,42,42h132c23.1,0,42-18.9,42-42v-132c0-23.095-18.9-42-42-42h-132zm0,20h132c12.36,0,22,9.639,22,22v132c0,12.36-9.64,22-22,22h-132c-12.361,0-22-9.64-22-22v-132c0-12.361,9.639-22,22-22zm-2,20v136h136v-136h-136zm97.56,14c3.78,0,6.51,0.731,8.22,2.188,1.71,1.456,2.59,3.333,2.6,5.656-0.01,2.047-0.58,3.674-1.72,4.875-1.15,1.2-2.56,1.812-4.25,1.812-1.58,0-2.89-0.484-3.91-1.469-1.02-0.984-1.53-2.184-1.53-3.562,0-0.984,0.32-2.023,0.97-3.125s0.97-1.856,0.97-2.25c0-0.433-0.15-0.787-0.44-1.063-0.3-0.275-0.69-0.406-1.16-0.406-2.32,0-4.68,1.439-7.12,4.313-4.02,4.606-7.25,11.884-9.69,21.841h8.56l-2.09,6.91h-8.31l-6.91,27.28c-3.23,12.87-6.37,22.21-9.44,28s-6.67,10.07-10.78,12.84c-4.11,2.78-8.84,4.16-14.155,4.16-3.346,0-5.8-0.63-7.375-1.91s-2.375-2.8-2.375-4.53c0-1.61,0.67-3,1.969-4.18,1.299-1.19,2.999-1.79,5.125-1.79,1.771,0,3.149,0.47,4.093,1.38,0.945,0.9,1.408,2.03,1.408,3.41,0,1.25-0.286,2.2-0.876,2.81-0.591,0.61-0.906,1.02-0.906,1.22l0.312,0.4c0.236,0.2,0.498,0.28,0.812,0.28,1.178,0,2.208-0.34,3.028-1.09,2.09-1.85,3.64-4.11,4.66-6.75,0.71-1.81,2.05-6.59,4.06-14.34l12.07-47.19h-8.22l1.93-6.91c2.96,0.04,5.1-0.34,6.44-1.12,1.34-0.79,2.76-2.559,4.25-5.315,4.33-7.991,8.92-13.723,13.72-17.187,4.8-3.465,10.16-5.188,16.06-5.188z" transform="translate(0,796.36218)"/>
	</g>
</svg>
